<svg xmlns="http://www.w3.org/2000/svg" version="1.1" viewBox="-5.0 -10.0 110.0 135.0">
 <g>
  <path d="m30.168 23.578c0.074219 0 0.14844-0.023437 0.21094-0.074219 1.0156-0.76953 2.0938-1.4883 3.1914-2.1367 0.16797-0.10156 0.22656-0.31641 0.125-0.48438-0.10156-0.16797-0.31641-0.22656-0.48437-0.125-1.1211 0.66406-2.2188 1.3945-3.2578 2.1836-0.15625 0.11719-0.1875 0.33984-0.070313 0.49609 0.070313 0.09375 0.17578 0.14062 0.28516 0.14062z"/>
  <path d="m24.559 28.926c0.10156 0 0.20312-0.042969 0.27344-0.12891 0.81641-0.98047 1.6992-1.9258 2.6211-2.8047 0.14062-0.13672 0.14844-0.35938 0.011719-0.5-0.13672-0.14063-0.35938-0.14844-0.5-0.011719-0.94141 0.89844-1.8438 1.8633-2.6758 2.8633-0.125 0.14844-0.10547 0.37109 0.046876 0.5 0.0625 0.054688 0.14453 0.082031 0.22266 0.082031z"/>
  <path d="m36.84 19.648c0.046875 0 0.097656-0.011719 0.14062-0.03125 1.168-0.51563 2.375-0.97266 3.5938-1.3516 0.1875-0.058594 0.28906-0.25781 0.23438-0.44141-0.058594-0.1875-0.25781-0.28906-0.44141-0.23438-1.2422 0.38672-2.4766 0.85156-3.668 1.3789-0.17969 0.078125-0.26172 0.28906-0.17969 0.46875 0.054688 0.12891 0.18359 0.21094 0.32031 0.21094z"/>
  <path d="m20.156 35.371c0.050781 0.023437 0.10547 0.039062 0.15625 0.039062 0.12891 0 0.25391-0.074218 0.31641-0.19531 0.57422-1.1406 1.2188-2.2617 1.918-3.3281 0.10938-0.16406 0.0625-0.38281-0.10156-0.48828-0.16406-0.10938-0.38281-0.0625-0.48828 0.10156-0.71484 1.0898-1.3711 2.2344-1.957 3.3984-0.089844 0.17578-0.019531 0.38672 0.15625 0.47266z"/>
  <path d="m51.949 16.797c1.2773 0.054687 2.5664 0.18359 3.8203 0.38281 0.019531 0.003906 0.039063 0.003906 0.054688 0.003906 0.17188 0 0.32422-0.125 0.35156-0.30078 0.03125-0.19141-0.10156-0.375-0.29688-0.40625-1.2852-0.20312-2.5977-0.33594-3.9023-0.39062-0.19141-0.007813-0.35937 0.14062-0.37109 0.33984s0.14844 0.36328 0.34375 0.37109z"/>
  <path d="m44.234 17.348c0.023437 0 0.042969-0.003906 0.066406-0.003906 1.2539-0.23438 2.5312-0.39844 3.8086-0.48828 0.19531-0.015625 0.34375-0.18359 0.32812-0.37891-0.015625-0.19531-0.18359-0.34375-0.37891-0.32812-1.3008 0.09375-2.6094 0.26172-3.8867 0.50391-0.19141 0.035156-0.32031 0.21875-0.28125 0.41406 0.027344 0.16016 0.17578 0.28125 0.34375 0.28125z"/>
  <path d="m41.844 82.434c-1.2344-0.32812-2.4609-0.73438-3.6484-1.207-0.18359-0.074218-0.38672 0.015626-0.46094 0.19922-0.074219 0.18359 0.015625 0.38672 0.19922 0.46094 1.2109 0.48047 2.4648 0.89453 3.7266 1.2344 0.03125 0.007812 0.0625 0.011718 0.09375 0.011718 0.15625 0 0.30078-0.10547 0.34375-0.26172 0.050782-0.19141-0.0625-0.38672-0.25391-0.4375z"/>
  <path d="m18.34 59.195c-0.050782-0.1875-0.24609-0.29687-0.4375-0.24609-0.1875 0.050781-0.29688 0.24609-0.24609 0.4375 0.35156 1.2539 0.78125 2.5039 1.2734 3.707 0.054687 0.13672 0.1875 0.21875 0.32812 0.21875 0.046876 0 0.089844-0.007812 0.13672-0.027344 0.17969-0.074218 0.26562-0.28125 0.19141-0.46094-0.48047-1.1797-0.90234-2.3984-1.2461-3.6289z"/>
  <path d="m25.695 72.527c-0.12891-0.14453-0.35547-0.15625-0.5-0.023438-0.14453 0.12891-0.15625 0.35547-0.023437 0.5 0.87109 0.96875 1.8086 1.8945 2.7891 2.7578 0.066406 0.058593 0.14844 0.085937 0.23437 0.085937 0.097657 0 0.19531-0.039062 0.26563-0.12109 0.12891-0.14844 0.11328-0.37109-0.03125-0.5-0.96094-0.84375-1.8828-1.75-2.7344-2.6992z"/>
  <path d="m34.719 79.609c-1.1211-0.60156-2.2266-1.2812-3.2734-2.0117-0.16016-0.11328-0.37891-0.074218-0.49219 0.085938s-0.074219 0.37891 0.085937 0.49219c1.0703 0.74609 2.1953 1.4336 3.3438 2.0508 0.050782 0.027344 0.10938 0.042969 0.16797 0.042969 0.125 0 0.24609-0.066406 0.3125-0.1875 0.089844-0.16797 0.027344-0.38281-0.14453-0.47266z"/>
  <path d="m21.246 66.289c-0.09375-0.17187-0.30859-0.23437-0.48047-0.14062s-0.23438 0.30859-0.14062 0.48047c0.62891 1.1406 1.332 2.2539 2.0859 3.3164 0.070312 0.097657 0.17578 0.14844 0.28906 0.14844 0.070312 0 0.14062-0.023438 0.20312-0.066406 0.16016-0.11328 0.19922-0.33594 0.082031-0.49609-0.73438-1.0352-1.4258-2.1289-2.0391-3.2422z"/>
  <path d="m17.137 51.625c-0.007813-0.19531-0.17188-0.34766-0.37109-0.33594-0.19531 0.007813-0.34766 0.17188-0.33594 0.37109 0.054687 1.3047 0.1875 2.6172 0.39062 3.8984 0.027344 0.17578 0.17578 0.29688 0.35156 0.29688 0.015625 0 0.039063-0.003907 0.054687-0.003907 0.19141-0.03125 0.32422-0.21094 0.29688-0.40625-0.20313-1.2578-0.33203-2.543-0.38672-3.8203z"/>
  <path d="m79.816 66.926c-0.16797-0.10156-0.38672-0.042969-0.48438 0.125-0.64453 1.1016-1.3633 2.1719-2.1289 3.1953-0.11719 0.15625-0.085937 0.37891 0.070313 0.49609 0.066406 0.046874 0.13672 0.074218 0.21094 0.074218 0.10938 0 0.21094-0.046875 0.28125-0.14062 0.78516-1.043 1.5156-2.1406 2.1758-3.2617 0.10156-0.16797 0.046875-0.38672-0.125-0.48828z"/>
  <path d="m82.871 59.805c-0.1875-0.058594-0.38672 0.046874-0.44141 0.23437-0.37891 1.2188-0.82813 2.4297-1.3438 3.5977-0.078126 0.17969 0.003906 0.38672 0.17969 0.46875 0.046875 0.019531 0.09375 0.03125 0.14062 0.03125 0.13672 0 0.26562-0.078125 0.32422-0.21094 0.52734-1.1914 0.98828-2.4297 1.3711-3.6719 0.0625-0.19141-0.042968-0.39062-0.23047-0.44922z"/>
  <path d="m84.207 52.172c-0.19531-0.011719-0.36328 0.13672-0.37891 0.32812-0.085937 1.2734-0.25 2.5586-0.48438 3.8086-0.035156 0.19141 0.089844 0.37891 0.28125 0.41406 0.023438 0.003906 0.042969 0.003906 0.066406 0.003906 0.16797 0 0.31641-0.12109 0.34766-0.28906 0.23828-1.2773 0.40625-2.5859 0.49609-3.8906 0.015625-0.19141-0.13281-0.36328-0.32812-0.375z"/>
  <path d="m70.664 54.453h-6.2148c-1.3359 0-2.4258 1.0859-2.4258 2.4258v3.2227l-3.3359-2.2227c-0.16406-0.10938-0.38281-0.066406-0.48828 0.097656-0.10938 0.16406-0.066407 0.38281 0.097656 0.48828l3.8828 2.5859h0.003906c0.023437 0.015625 0.050781 0.03125 0.082031 0.039063 0.007813 0.003906 0.015625 0.003906 0.019531 0.007812 0.03125 0.007813 0.058594 0.011719 0.089844 0.011719s0.0625-0.003906 0.089844-0.011719c0.007812-0.003906 0.015625-0.003906 0.019531-0.007812 0.03125-0.011719 0.058594-0.023438 0.082031-0.039063h0.003906l3.8828-2.5859c0.16406-0.10938 0.20703-0.32812 0.097656-0.48828-0.10938-0.16406-0.32812-0.20703-0.48828-0.097656l-3.3359 2.2227v-3.2227c0-0.94922 0.76953-1.7188 1.7188-1.7188h6.2148c0.94922 0 1.7188 0.76953 1.7188 1.7188v13.723c0 0.19531 0.15625 0.35547 0.35547 0.35547s0.35547-0.15625 0.35547-0.35547l-0.007813-10.203v-3.5156c0.003907-1.3359-1.082-2.4297-2.418-2.4297z"/>
  <path d="m72.734 75.434c-0.19531 0-0.35547 0.15625-0.35547 0.35547v7.7695c0 0.19531 0.15625 0.35547 0.35547 0.35547s0.35547-0.15625 0.35547-0.35547v-7.7695c-0.003906-0.19531-0.16016-0.35547-0.35547-0.35547z"/>
  <path d="m66.871 64.137c0-0.91016-0.73828-1.6484-1.6484-1.6484h-7.5117c-0.35156 0-0.67188 0.10938-0.94141 0.29688v-6.6758c0-0.91016-0.73828-1.6484-1.6484-1.6484h-6.9922c-0.91016 0-1.6484 0.73828-1.6484 1.6484v11.559h-1.1992c-0.023438 0-0.050781 0.003906-0.074219 0.007812-0.007812 0.003907-0.011719 0.003907-0.019531 0.003907-0.015625 0.003906-0.035156 0.011718-0.050781 0.015624-0.007813 0.003907-0.015625 0.007813-0.023438 0.011719-0.015625 0.007813-0.027343 0.015625-0.039062 0.023438-0.007813 0.003906-0.015625 0.011719-0.023438 0.015625-0.011719 0.011718-0.023437 0.019531-0.03125 0.03125-0.003906 0.003906-0.007812 0.007812-0.011719 0.011718l-4.2344 5.1758-0.42969 0.52734c-0.085938 0.10547-0.10547 0.25391-0.046875 0.375 0.058594 0.12109 0.18359 0.20312 0.32031 0.20312h4.3086v8.1914c0 0.91016 0.73828 1.6484 1.6484 1.6484h20.203c0.91016 0 1.6484-0.73828 1.6484-1.6484v-8.1914h4.3086c0.13672 0 0.26172-0.078124 0.32031-0.20312 0.058593-0.12109 0.039062-0.26953-0.046876-0.375l-4.6562-5.6953c-0.003906-0.003906-0.007812-0.007813-0.011718-0.011719-0.011719-0.011718-0.019532-0.023437-0.03125-0.03125-0.007813-0.007812-0.015625-0.011718-0.023438-0.015625-0.011718-0.011719-0.027344-0.015625-0.039062-0.023437-0.007813-0.003906-0.015625-0.007813-0.023438-0.011719-0.015625-0.007813-0.035156-0.011719-0.050781-0.015625-0.007813-0.003906-0.011719-0.003906-0.019531-0.003906-0.023438-0.003906-0.050782-0.007813-0.074219-0.007813h-0.011719l-1.1914-0.007812zm-9.8398 19.066v-10.523c0-0.19531-0.15625-0.35547-0.35547-0.35547s-0.35547 0.15625-0.35547 0.35547v10.523h-9.7461c-0.51953 0-0.94141-0.42188-0.94141-0.94141v-8.1914h6.3789c0.10547 0 0.20703-0.046874 0.27344-0.12891l4.3867-5.3633 4.3867 5.3633c0.066406 0.082032 0.16797 0.12891 0.27344 0.12891h6.3789v8.1914c0 0.51953-0.42188 0.94141-0.94141 0.94141zm-11.582-14.832h10.48l-4.082 4.9883h-10.48zm9.6719-13.207c0.51953 0 0.94141 0.42188 0.94141 0.94141v11.562h-8.875v-11.559c0-0.51953 0.42188-0.94141 0.94141-0.94141zm2.5898 8.0273h7.5117c0.51953 0 0.94141 0.42188 0.94141 0.94141v3.5312h-9.3906v-3.5312c-0.003907-0.51953 0.41797-0.94141 0.9375-0.94141zm3.793 10.172-4.082-4.9883h10.48l4.082 4.9883z"/>
  <path d="m49.422 58.531h4.4023c0.19531 0 0.35547-0.15625 0.35547-0.35547s-0.15625-0.35547-0.35547-0.35547h-4.4023c-0.19531 0-0.35547 0.15625-0.35547 0.35547 0.003906 0.19531 0.16016 0.35547 0.35547 0.35547z"/>
  <path d="m49.422 61.641h4.4023c0.19531 0 0.35547-0.15625 0.35547-0.35547 0-0.19922-0.15625-0.35547-0.35547-0.35547h-4.4023c-0.19531 0-0.35547 0.15625-0.35547 0.35547 0.003906 0.19531 0.16016 0.35547 0.35547 0.35547z"/>
  <path d="m49.422 64.746h4.4023c0.19531 0 0.35547-0.15625 0.35547-0.35547s-0.15625-0.35547-0.35547-0.35547h-4.4023c-0.19531 0-0.35547 0.15625-0.35547 0.35547s0.16016 0.35547 0.35547 0.35547z"/>
  <path d="m38.652 62.996c0.19531 0 0.35547-0.15625 0.35547-0.35547s-0.15625-0.35547-0.35547-0.35547h-4.0156c1.2422-1.1836 3.2383-3.6445 4.6992-5.7656 1.6211-2.3594 3.4609-5.4844 4.3945-8.6133h3.1719v1.8594c0 0.28906 0.18359 0.53516 0.46094 0.61719 0.0625 0.015626 0.125 0.027344 0.18359 0.027344 0.21094 0 0.41406-0.10547 0.53906-0.29297l3.5078-5.3789c0.26562-0.40625 0.26562-0.92969 0-1.3359l-3.5039-5.3789c-0.15625-0.23828-0.44922-0.34766-0.72266-0.26563-0.27344 0.082032-0.46094 0.32813-0.46094 0.61719v1.8594h-3.2891c-1.0938-2.8086-3.3359-5.043-6.1523-6.125v-3.3164h1.8594c0.28906 0 0.53516-0.18359 0.61719-0.46094 0.082032-0.27344-0.023437-0.56641-0.26562-0.72266l-1.4766-0.96094-3.8984-2.543c-0.40625-0.26562-0.92969-0.26562-1.3359 0l-5.3789 3.5078c-0.23828 0.15625-0.34766 0.44922-0.26563 0.72266 0.082032 0.27344 0.32813 0.46094 0.61719 0.46094h1.8594v3.3164c-2.8125 1.082-5.0586 3.3164-6.1523 6.125h-3.293v-1.8594c0-0.28906-0.18359-0.53516-0.46094-0.61719-0.27344-0.082031-0.56641 0.023437-0.72266 0.26562l-3.5078 5.3789c-0.26562 0.40625-0.26562 0.93359 0 1.3359l3.5078 5.3789c0.12109 0.1875 0.32422 0.29297 0.53906 0.29297 0.0625 0 0.125-0.011718 0.18359-0.027343 0.27344-0.082031 0.46094-0.32812 0.46094-0.61719v-1.8594l3.1719-0.003906c0.55859 1.8711 1.4336 3.7344 2.3984 5.4375 0.65234 1.1484 1.3438 2.2266 1.9961 3.1758 1.4609 2.1211 3.457 4.5781 4.6992 5.7656h-4.0156c-0.19531 0-0.35547 0.15625-0.35547 0.35547s0.15625 0.35547 0.35547 0.35547zm-15.031-18.879c0-5.5156 4.4883-10.008 10.008-10.008 5.5156 0 10.008 4.4883 10.008 10.008 0 7.4688-8.7617 17.215-10.008 18.129-1.2422-0.91406-10.008-10.66-10.008-18.129zm-3.9766 5.4336-3.3906-5.1992c-0.11328-0.17187-0.11328-0.39062 0-0.5625l3.3906-5.1992v2c0 0.19531 0.15625 0.35547 0.35547 0.35547h3.3945c-0.30859 1.0039-0.48047 2.0664-0.48047 3.1719 0 1.0039 0.15625 2.0391 0.41797 3.082l-3.3359 0.003906c-0.19531 0-0.35547 0.15625-0.35547 0.35547zm10.504-19.465h-2l5.1992-3.3906c0.17188-0.11328 0.39062-0.11328 0.5625 0l5.1992 3.3906h-2c-0.19531 0-0.35547 0.15625-0.35547 0.35547v3.4258c-0.98828-0.30078-2.0391-0.46875-3.125-0.46875-1.0859 0-2.1367 0.16406-3.125 0.46875v-3.4258c0-0.19531-0.16016-0.35547-0.35547-0.35547zm17.465 8.5078 3.3906 5.1992c0.11328 0.17188 0.11328 0.39062 0 0.5625l-3.3906 5.1953v-2c0-0.19531-0.15625-0.35547-0.35547-0.35547h-3.332c0.26172-1.043 0.41797-2.0781 0.41797-3.082 0-1.1016-0.16797-2.168-0.48047-3.1719h3.3945c0.19531 0 0.35547-0.15625 0.35547-0.35547z"/>
  <path d="m39.426 49.422v-4.0664c0.30078-0.11719 0.51562-0.40625 0.51562-0.75391v-3.8125c0-0.44531-0.35938-0.80859-0.80078-0.80859h-2.4062v-0.80469c0-0.69531-0.55859-1.2617-1.2461-1.2617l-3.7148 0.003907c-0.6875 0-1.2461 0.56641-1.2461 1.2617v0.80469h-2.4062c-0.44141 0-0.80078 0.36328-0.80078 0.80859v3.8125c0 0.34375 0.21484 0.63672 0.51563 0.75391v4.0664c0 0.44531 0.35937 0.80859 0.80078 0.80859l9.9883-0.007813c0.44141 0 0.80078-0.36328 0.80078-0.80469zm-10.883 0v-4.0117h3.0977v0.3125c0 0.44531 0.35938 0.80859 0.80078 0.80859h2.3789c0.44141 0 0.80078-0.36328 0.80078-0.80859v-0.3125h3.0977v4.0117c0 0.054687-0.039062 0.097656-0.09375 0.097656h-9.9922c-0.050781 0-0.089843-0.042969-0.089843-0.097656zm3.2305-10.793h3.7109c0.29688 0 0.53906 0.24609 0.53906 0.55078v0.80469h-4.7891v-0.80469c0-0.30469 0.24219-0.55078 0.53906-0.55078zm7.3672 2.0625c0.050781 0 0.09375 0.046875 0.09375 0.097656v3.8125c0 0.054688-0.039063 0.097657-0.09375 0.097657h-3.5195v-0.3125c0-0.44531-0.35938-0.80859-0.80078-0.80859h-2.3789c-0.44141 0-0.80078 0.36328-0.80078 0.80859v0.3125h-3.5195c-0.050782 0-0.09375-0.046875-0.09375-0.097657v-3.8125c0-0.054687 0.039062-0.097656 0.09375-0.097656zm-6.793 3.6992c0-0.054687 0.039063-0.097656 0.09375-0.097656h2.3789c0.050782 0 0.09375 0.046875 0.09375 0.097656v1.332c0 0.054688-0.039062 0.097656-0.09375 0.097656h-2.3789c-0.050781 0-0.09375-0.046874-0.09375-0.097656z"/>
  <path d="m54.293 26.914c-0.19531 0-0.35547 0.15625-0.35547 0.35547v22.457c0 0.19531 0.15625 0.35547 0.35547 0.35547h28.395c0.19531 0 0.35547-0.15625 0.35547-0.35547v-14.273c0-0.19531-0.15625-0.35547-0.35547-0.35547h-2.4141v-11.977c0-0.19531-0.15625-0.35547-0.35547-0.35547h-13.863l0.003906-4.3438c0-0.19531-0.15625-0.35547-0.35547-0.35547h-7.5703c-0.19531 0-0.35547 0.15625-0.35547 0.35547v8.4922zm25.273-3.4375v11.621h-10.797v-7.8281c0-0.19531-0.15625-0.35547-0.35547-0.35547h-2.25v-3.4375zm-2.8594 17.176c-0.13672 0.13672-0.13672 0.36328 0 0.5 0.070313 0.070312 0.16016 0.10547 0.25 0.10547 0.089844 0 0.17969-0.035156 0.25-0.10547l5.1289-5.1289v13.344h-13.344l4.9609-4.9609c0.13672-0.13672 0.13672-0.36328 0-0.5s-0.36328-0.13672-0.5 0l-4.6797 4.6797v-12.328l11.598 11.641c0.070312 0.070312 0.16016 0.10547 0.25 0.10547s0.17969-0.035156 0.25-0.10156c0.13672-0.13672 0.14062-0.36328 0-0.5l-11.551-11.598h12.238zm-22.059-13.031h13.414v21.746h-13.414zm10.703-8.8477v8.1406h-6.8594v-8.1406z"/>
  <path d="m65.672 36.023c0-0.19531-0.15625-0.35547-0.35547-0.35547h-0.92578v-2.2031c0-0.007813-0.003906-0.011719-0.003906-0.019532 1.0859-0.14453 1.9219-0.95312 1.9219-1.9258v-1.8906c0-0.19531-0.15625-0.35547-0.35547-0.35547h-3.8359c-0.19531 0-0.35547 0.15625-0.35547 0.35547v1.8906c0 0.97266 0.83594 1.7812 1.9219 1.9258 0 0.007813-0.003906 0.011719-0.003906 0.019532v2.2031h-0.92578c-0.19531 0-0.35547 0.15625-0.35547 0.35547 0 0.19922 0.15625 0.35547 0.35547 0.35547h1.2773 0.003906 0.003906 1.2773c0.19531 0 0.35547-0.16016 0.35547-0.35547zm-3.1992-6.0391h3.1289v1.5352c0 0.68359-0.70312 1.2461-1.5625 1.2461-0.86328 0-1.5664-0.55859-1.5664-1.2461z"/>
 </g>
</svg>