<svg xmlns:dc="http://purl.org/dc/elements/1.1/" xmlns:cc="http://creativecommons.org/ns#" xmlns:rdf="http://www.w3.org/1999/02/22-rdf-syntax-ns#" xmlns:svg="http://www.w3.org/2000/svg" xmlns="http://www.w3.org/2000/svg" xmlns:sodipodi="http://sodipodi.sourceforge.net/DTD/sodipodi-0.dtd" xmlns:inkscape="http://www.inkscape.org/namespaces/inkscape" version="1.1" x="0px" y="0px" viewBox="0 0 100 125"><g transform="translate(0,-952.36218)"><path style="text-indent:0;text-transform:none;direction:ltr;block-progression:tb;baseline-shift:baseline;color:#000000;enable-background:accumulate;" d="m 1.7961938,978.86217 c -0.4491,0.084 -0.80399996,0.5173 -0.796,0.9697 l 0,17.4544 c 10e-5,0.5078 0.4668,0.9696 0.9797,0.9697 l 47.0243002,0 c 0.513,-1e-4 0.9796,-0.4619 0.9797,-0.9697 l 0,-17.4544 c -10e-5,-0.5077 -0.4667,-0.9696 -0.9797,-0.9697 -15.7317,0 -31.4897,0 -47.2080002,0 z m 1.1634,1.9394 5.878,0 0,3.8181 -5.878,0 z m 7.8374002,0 5.878,0 0,3.8181 -5.878,0 z m 7.8373,0 5.8781,0 0,3.8181 -5.8781,0 z m 7.8374,0 5.8781,0 0,3.8181 -5.8781,0 z m 7.8374,0 5.8781,0 0,3.8181 -5.8781,0 z m 7.8374,0 5.878,0 0,3.8181 -5.878,0 z m 12.4602,1.788 c -1.4448,0.1348 -2.6697,1.4725 -2.6635,2.909 l 0,13.7271 c -14.9534,0.015 -33.5259,-0.041 -48.0039002,0 -1.5389,1.9e-4 -2.9389,1.38583 -2.9391,2.90903 10e-5,1.5006 0,10.5299 0,13.5756 10e-5,1.5334 1.4207,2.9249 2.9697,2.9091 1.7357,-0.014 4.1874,-0.02 6.1229002,-0.03 1.0934,4.1713 4.9498,7.2726 9.4906,7.2726 4.5627,0 8.4495,-3.1315 9.5212,-7.3334 13.5234,-0.01 26.9636,0.034 40.7483,0.061 1.0933,4.1713 4.9497,7.2726 9.4906,7.2726 4.5294,0 8.386,-3.0869 9.4905,-7.2424 l 7.1945,0 c 1.5388,-2e-4 2.9389,-1.3858 2.939,-2.9091 0,-4.6698 0.073,-5.7149 0,-9.6968 -0.5665,-3.2038 -2.6671,-5.9759 -4.9902,-7.12083 -2.6678,-1.2505 -6.269,-1.9063 -10.9907,-2.3938 -2.8265,-3.8186 -6.7466,-9.5692 -9.1232,-12.6363 -0.5427,-0.6894 -1.4131,-1.1144 -2.2961,-1.1211 -5.7934,-0.03 -11.7535,-0.1193 -16.9606,-0.1523 z m -51.6471002,3.9695 5.878,0 0,3.8788 -5.878,0 z m 7.8374002,0 5.878,0 0,3.8788 -5.878,0 z m 7.8374,0 5.878,0 0,3.8788 -5.878,0 z m 7.8373,0 5.8781,0 0,3.8788 -5.8781,0 z m 7.8374,0 5.8781,0 0,3.8788 -5.8781,0 z m 7.8374,0 5.878,0 0,3.8788 -5.878,0 z m 15.6748,1.8787 12.2153,0.1213 c 2.3786,3.1903 6.1546,8.7185 8.9395,12.39383 0.4911,0.6482 1.2667,1.0771 2.0818,1.1515 5.2442,0.4719 8.7073,1.2325 10.409,2.0304 1.7018,0.7977 1.6226,0.909 1.6226,1.8787 0.045,2.3588 0.016,4.8124 0,6.7876 -1.2873,-6e-4 -3.1684,0 -4.531,0 -0.3979,-3.3939 -5.2963,-6.303 -9.215,-6.303 -4.1586,0 -7.7376,2.6187 -9.1538,6.2727 -13.8829,-0.024 -27.8263,-0.042 -41.4218,-0.03 -1.4233,-3.64 -5.036,-6.2424 -9.1844,-6.2424 -4.1726,0 -7.7783,2.6299 -9.1845,6.303 -1.0963002,0.01 -2.4871002,-0.01 -3.5207002,0 l 0,-7.7575 c 14.9508002,-0.029 33.5286002,0.025 48.0040002,0 1.5388,-2e-4 2.9389,-1.3858 2.939,-2.9091 z m 1.7756,1.091 c -0.4491,0.084 -0.804,0.5173 -0.796,0.9697 l 0,11.63623 c 0.011,0.4598 0.3964,0.8821 0.8573,0.9395 5.9947,0.158 12.5939,0.033 17.7565,0.03 0.7135,0.012 1.228,-0.9312 0.8266,-1.5153 -2.0429,-3.03313 -4.9401,-5.88003 -8.817,-11.63614 -0.1819,-0.26469 -0.5032,-0.42949 -0.8266,-0.4243 -3.0747,-10e-5 -6.2381,0 -9.0008,3.1e-4 z m -56.6373002,2.8484 5.878,0 0,3.9395 -5.878,0 z m 7.8374002,0 5.878,0 0,3.9395 -5.878,0 z m 7.8374,0 5.878,0 0,3.9395 -5.878,0 z m 7.8373,0 5.8781,0 0,3.9395 -5.8781,0 z m 7.8374,0 5.8781,0 0,3.9395 -5.8781,0 z m 7.8374,0 5.878,0 0,3.9395 -5.878,0 z" fill="#000000" fill-opacity="1" stroke="none" marker="none" visibility="visible" display="inline" overflow="visible"/></g></svg>