<svg xmlns="http://www.w3.org/2000/svg" xmlns:xlink="http://www.w3.org/1999/xlink" version="1.1" viewBox="328 722 64 80" x="0px" y="0px"><g><g style="" fill="rgb(0,0,0)" fill-opacity="1.0" stroke-linejoin=" miter"><path d="M353.1145,736.21826L353.1145,736.21924C352.43048,736.21826,351.87598,736.77277,351.87598,737.4568L351.87598,737.45776C351.87598,738.1418,352.43048,738.6963,353.1145,738.6963C353.79852,738.6963,354.35303,738.1418,354.35303,737.45776L354.35303,737.4568C354.35303,736.77277,353.79852,736.21826,353.1145,736.21826L353.1145,736.21924 Z M346.72598,755.5564L346.72598,755.5574C346.04196,755.5564,345.48746,756.1109,345.48746,756.7949L345.48746,756.7959C345.48746,757.4799,346.04196,758.0344,346.72598,758.0344C347.41,758.0344,347.9645,757.4799,347.9645,756.7959L347.9645,756.7949C347.9645,756.1109,347.41,755.5564,346.72598,755.5564L346.72598,755.5574 Z M371.40448,757.3584L371.40448,757.3594L369.82083,757.35846C369.13696,757.35846,368.5826,757.91296,368.58264,758.5968C368.58267,759.28064,369.1371,759.835,369.82095,759.835L371.4046,759.83496C372.08847,759.83496,372.64282,759.28046,372.6428,758.5966C372.64276,757.9128,372.08835,757.3584,371.40448,757.3584L371.40448,757.3594 Z M342.65912,735.63885L342.65912,735.63983L342.65912,735.6408L342.65912,742.8837C342.65912,743.31995,342.8886,743.724,343.2633,743.9474C343.45837,744.06366,343.67776,744.1221,343.89746,744.1221C344.0998,744.1221,344.30234,744.0726,344.48633,743.9731L348.50488,741.8018L352.52582,743.9744C352.7098,744.0739,352.91235,744.1234,353.1147,744.1234C353.33438,744.1234,353.55377,744.065,353.74884,743.9487C354.12354,743.72534,354.35303,743.3213,354.35303,742.8851L354.35303,740.7408C354.35303,740.0569,353.7986,739.50244,353.1147,739.50244C352.43076,739.50244,351.87634,740.0569,351.87634,740.7408L351.87634,740.808L349.14795,739.33594C348.9541,739.2174,348.73065,739.1548,348.5035,739.1548C348.30466,739.1548,348.10297,739.20276,347.91574,739.30396L345.1358,740.80664L345.1358,735.63995L360.68463,735.64154C362.86667,735.65356,364.66782,737.42725,364.66782,739.61346C364.66782,739.61584,364.6678,755.5573,364.6678,755.5573L351.03394,755.55786C350.35007,755.55786,349.79572,756.11237,349.79575,756.7962C349.79578,757.48004,350.3502,758.0344,351.03406,758.0344L364.66724,758.0339L364.66714,758.44086C364.6671,759.1247,365.2215,759.679,365.90533,759.6791L365.90546,759.68005C366.58923,759.6791,367.14368,759.1247,367.1437,758.4409L367.14487,742.8283L372.37027,742.8261C376.25818,742.82715,379.413,745.9644,379.44333,749.84576L379.43622,753.6085L372.9035,753.6077C372.21964,753.6077,371.66525,754.1621,371.66522,754.84595C371.6652,755.5298,372.21957,756.0843,372.90344,756.0843L386.1577,756.0867C386.936,756.0879,387.56573,756.72003,387.56573,757.49945C387.56573,757.5035,387.56577,765.3537,387.56577,765.3554C387.56577,766.1348,386.93604,766.76697,386.15775,766.76917L383.65005,766.7693C383.08667,763.539,380.26868,761.0834,376.87717,761.0834C373.48483,761.0834,370.6662,763.5403,370.10385,766.77185L350.94608,766.7974C350.3938,763.5528,347.56952,761.0834,344.16852,761.0834C340.76788,761.0834,337.94376,763.55237,337.3911,766.7956L333.84055,766.7941C333.06226,766.79193,332.43253,766.1598,332.43253,765.3804C332.43253,765.3788,332.43256,739.61346,332.43256,739.61346C332.43256,737.42725,334.23346,735.65356,336.4155,735.6386 Z M344.16852,763.5604L344.16852,763.5614C346.5976,763.5604,348.56686,765.52954,348.56686,767.95874C348.56686,770.38806,346.5975,772.3573,344.16852,772.3573C341.73953,772.3573,339.77017,770.38806,339.77017,767.95874C339.77017,765.52954,341.73953,763.5604,344.16852,763.5604L344.16852,763.5614 Z M376.87717,763.5604L376.87717,763.5614C379.30624,763.5604,381.2755,765.52954,381.2755,767.95874C381.2755,770.38806,379.30615,772.3573,376.87717,772.3573C374.44818,772.3573,372.47882,770.38806,372.47882,767.95874C372.47882,765.52954,374.44818,763.5604,376.87717,763.5604L376.87717,763.5614 Z M336.39035,733.1698L336.39035,733.1708C332.84747,733.1688,329.97714,736.03217,329.9555,739.57324L329.9555,765.3848C329.95792,767.5238,331.68384,769.25726,333.81854,769.2732L337.41858,769.27405C338.0319,772.4416,340.82086,774.83435,344.16852,774.83435C347.51596,774.83435,350.30374,772.44904,350.91727,769.2808L370.12305,769.25226C370.72775,772.43066,373.52182,774.83435,376.87717,774.83435C380.2328,774.83435,383.02704,772.43024,383.63144,769.2505L383.63153,769.25146L386.17975,769.2492C388.31445,769.2323,390.04037,767.49884,390.0428,765.35986L390.0428,757.495C390.04037,755.356,388.31445,753.62274,386.17972,753.6068L381.9206,753.60724L381.9203,749.8276C381.87927,744.6019,377.64615,740.37665,372.41946,740.3482L367.14487,740.3483L367.14487,739.57324C367.12323,736.02606,364.24487,733.15906,360.6937,733.15906 Z"/></g></g></svg>