<svg xmlns="http://www.w3.org/2000/svg" version="1.1" viewBox="-5.0 -10.0 110.0 135.0">
 <path d="m94.426 36.004c-0.003906-0.058594-0.027343-0.10938-0.03125-0.16797h-0.003906c-0.011719-0.24609-0.054687-0.48828-0.12891-0.72266l-0.011719-0.03125v-0.003906l-0.019531-0.050781-0.003907-0.003906-0.085937-0.21484-0.019531-0.050782-0.023438-0.058593-0.14453-0.35938-5.0078-12.512-1.1797-2.9492-1.9961-4.9883-2.6328-6.5859v-0.003907c-0.42188-1.0547-1.4453-1.7461-2.582-1.7461h-26.391 0.003907c-1.5352 0-2.7773 1.2461-2.7773 2.7773 0 1.5352 1.2422 2.7773 2.7773 2.7773h24.508l1.1094 2.7773-59.57 0.003906 1.1094-2.7773h24.508l0.003907-0.003906c1.5312 0 2.7773-1.2422 2.7773-2.7773 0-1.5312-1.2461-2.7773-2.7773-2.7773h-26.391c-1.1367 0-2.1562 0.69141-2.5781 1.7461l-2.6367 6.5898-3.2344 8.0859-5.2227 13.051v0.003906c-0.12109 0.30859-0.1875 0.64062-0.19531 0.97266 0 0.039063-0.023437 0.070313-0.023437 0.10547v55.559c0 0.73438 0.29297 1.4414 0.81641 1.9648 0.51953 0.51953 1.2266 0.8125 1.9648 0.8125h41.637l0.015625-0.003906 0.011719 0.003906h2.7773c1.5352 0 2.7773-1.2461 2.7773-2.7773 0-1.5352-1.2422-2.7773-2.7773-2.7773h-0.03125l0.003906-16.82 8.3633-5.5742v22.395c-1.5352 0-2.7773 1.2422-2.7773 2.7773 0 1.5312 1.2422 2.7773 2.7773 2.7773h19.414c1.5352 0 2.7773-1.2461 2.7773-2.7773 0-1.5352-1.2422-2.7773-2.7773-2.7773v-35.336l8.3633-5.5742v40.91h-0.03125c-1.5352 0-2.7773 1.2422-2.7773 2.7773 0 1.5312 1.2422 2.7773 2.7773 2.7773h2.7773c0.73828 0 1.4453-0.29297 1.9648-0.8125 0.52344-0.52344 0.8125-1.2305 0.8125-1.9648v-55.559c0-0.10547-0.015624-0.16797-0.023437-0.25781 0.007813 0.054688 0.03125 0.097657 0.035156 0.15234zm-79.766-8.2266h31.176c1.5312 0 2.7773-1.2422 2.7773-2.7773s-1.2461-2.7773-2.7773-2.7773h-28.957l1.1094-2.7773h64.02l1.1094 2.7773h-28.949c-1.5352 0-2.7773 1.2422-2.7773 2.7773s1.2422 2.7773 2.7773 2.7773h31.172l0.80078 2 1.4219 3.5547h-37.562l-0.015625 0.003907-0.011719-0.003907h-37.535zm46.453 12.246v6.4414l-8.3633 5.5742v-13.148h8.3633zm5.5273 2.7578-0.003906-3.8906h5.8398l-5.8398 3.8945zm-41.668 4.5898v-8.4805h8.332v26.117l-8.332 5.5547zm13.891 2.3047-0.003906-10.785h8.3633v16.836l-8.3633 5.5742zm-27.75-10.785h8.332v35.352l-8.332 5.5547zm22.191 50h-5.7812l5.7812-3.8555zm13.918-9.0898v9.0898h-8.3633v-7.5586l8.3633-5.5742zm27.746-15.145 0.003906 24.234h-8.332l-0.003906-26.078 8.332-5.5547zm13.918-23.352-71.379 47.586h-6.3945v-2.4141l71.379-47.586h6.3945z"/>
</svg>