<svg xmlns="http://www.w3.org/2000/svg" version="1.1" viewBox="-5.0 -10.0 110.0 135.0">
 <path d="m23.438 78.125c2.5898 0 4.6875 2.0977 4.6875 4.6875s-2.0977 4.6875-4.6875 4.6875-4.6875-2.0977-4.6875-4.6875 2.0977-4.6875 4.6875-4.6875zm0 3.125c-0.86328 0-1.5625 0.69922-1.5625 1.5625s0.69922 1.5625 1.5625 1.5625 1.5625-0.69922 1.5625-1.5625-0.69922-1.5625-1.5625-1.5625z" fill-rule="evenodd"/>
 <path d="m39.062 78.125c2.5898 0 4.6875 2.0977 4.6875 4.6875s-2.0977 4.6875-4.6875 4.6875-4.6875-2.0977-4.6875-4.6875 2.0977-4.6875 4.6875-4.6875zm0 3.125c-0.86328 0-1.5625 0.69922-1.5625 1.5625s0.69922 1.5625 1.5625 1.5625 1.5625-0.69922 1.5625-1.5625-0.69922-1.5625-1.5625-1.5625z" fill-rule="evenodd"/>
 <path d="m78.125 78.125c2.5898 0 4.6875 2.0977 4.6875 4.6875s-2.0977 4.6875-4.6875 4.6875-4.6875-2.0977-4.6875-4.6875 2.0977-4.6875 4.6875-4.6875zm0 3.125c-0.86328 0-1.5625 0.69922-1.5625 1.5625s0.69922 1.5625 1.5625 1.5625 1.5625-0.69922 1.5625-1.5625-0.69922-1.5625-1.5625-1.5625z" fill-rule="evenodd"/>
 <path d="m46.469 36.719c1.3867-0.11719 2.8359 0.082031 3.9609 0.52734 0.49219 0.19141 0.85156 0.61719 0.95703 1.1328 0.10938 0.51562-0.050781 1.0508-0.42188 1.4258l-3.1367 3.1367-0.039063 1 0.14453 0.14062 1-0.039062 3.1367-3.1328c0.37109-0.375 0.90625-0.53125 1.4219-0.42578 0.51562 0.10938 0.94141 0.46875 1.1367 0.95703 0.44141 1.1289 0.64453 2.5742 0.52734 3.9609-0.11328 1.3711-0.56641 2.9297-1.6836 4.0469-0.81641 0.81641-1.8281 1.5391-2.9414 1.957-0.61328 0.23047-1.2773 0.39453-1.7617 0.53125-0.53125 0.14844-0.9375 0.28516-1.2852 0.46875-0.39453 0.20703-0.75781 0.47656-1.0742 0.79297l-4.1484 4.1484c-0.31641 0.31641-0.58594 0.67969-0.79297 1.0742-0.18359 0.34766-0.32031 0.75391-0.46875 1.2852-0.13672 0.48438-0.30078 1.1484-0.53125 1.7617-0.41797 1.1133-1.1406 2.125-1.957 2.9414-1.1172 1.1172-2.6758 1.5703-4.0469 1.6836-1.3867 0.11719-2.832-0.085938-3.9609-0.52734-0.48828-0.19531-0.84766-0.62109-0.95703-1.1367-0.10547-0.51563 0.050781-1.0508 0.42578-1.4219l3.1328-3.1367 0.039062-1-0.14062-0.14453-1 0.039063-3.1367 3.1367c-0.375 0.37109-0.91016 0.53125-1.4258 0.42188-0.51562-0.10547-0.94141-0.46484-1.1328-0.95312-0.44531-1.1289-0.64453-2.5781-0.52734-3.9648 0.11328-1.3711 0.5625-2.9258 1.6836-4.0469 0.8125-0.8125 1.8164-1.5312 2.9297-1.9492 0.61328-0.23438 1.2812-0.40234 1.7695-0.53906 0.53906-0.14844 0.94922-0.28516 1.2969-0.46875 0.39062-0.20703 0.75-0.47266 1.0664-0.78516l2.1133-2.0938 2.0391-2.0586c0.3125-0.31641 0.57812-0.67578 0.78516-1.0664 0.18359-0.34766 0.31641-0.75781 0.46875-1.2969 0.13672-0.48828 0.30469-1.1562 0.53906-1.7695 0.41797-1.1094 1.1367-2.1172 1.9492-2.9297 1.1211-1.1211 2.6758-1.5703 4.0469-1.6836zm0.023438 3.1406c-0.85547 0.10938-1.4922 0.38672-1.8594 0.75391-0.57031 0.57031-1.0078 1.2148-1.2383 1.8242-0.16797 0.44531-0.28125 0.89844-0.45312 1.5117-0.16016 0.56641-0.36719 1.2461-0.71094 1.9023-0.32812 0.61719-0.73828 1.1836-1.2188 1.6875l0.023437 0.027344-2.2031 2.1836-2.2031 2.2227-0.027344-0.023437c-0.50391 0.48047-1.0703 0.89062-1.6875 1.2188-0.65625 0.34375-1.3359 0.55078-1.9023 0.71094-0.61328 0.17188-1.0664 0.28516-1.5117 0.45312-0.61328 0.23047-1.2539 0.66797-1.8281 1.2383-0.36328 0.36719-0.64062 1.0039-0.75 1.8594l1.3047-1.3047c0.27734-0.28125 0.65234-0.44531 1.0469-0.46094l2.2969-0.082031c0.43359-0.015625 0.85156 0.14844 1.1602 0.45703l1.1055 1.1055c0.30469 0.30469 0.47266 0.72656 0.45703 1.1602l-0.085938 2.293c-0.015625 0.39453-0.17578 0.76953-0.45703 1.0508l-1.3047 1.3047c0.85156-0.10938 1.4922-0.38672 1.8594-0.75391 0.57031-0.57031 1.0078-1.2188 1.2383-1.8281 0.16797-0.44531 0.27734-0.89844 0.44922-1.5078 0.15625-0.56641 0.36719-1.2422 0.71094-1.8945 0.32422-0.61719 0.73828-1.1875 1.2188-1.6914l-0.007813-0.003906 4.4219-4.4219 0.003906 0.007813c0.50391-0.48047 1.0742-0.89453 1.6914-1.2188 0.65234-0.34375 1.3281-0.55469 1.8945-0.71094 0.60938-0.17188 1.0625-0.28125 1.5078-0.44922 0.60938-0.23047 1.2539-0.66797 1.8281-1.2383 0.36719-0.36719 0.64453-1.0078 0.75391-1.8594l-1.3047 1.3047c-0.28125 0.28125-0.65625 0.44141-1.0508 0.45703l-2.293 0.085938c-0.43359 0.015625-0.85547-0.15234-1.1602-0.45703l-1.1055-1.1055c-0.30859-0.30859-0.47266-0.72656-0.45703-1.1602l0.082031-2.2969c0.015626-0.39453 0.17969-0.76953 0.46094-1.0469z" fill-rule="evenodd"/>
 <path d="m39.738 8.0898c0.57031-0.39453 1.3438-0.36719 1.8867 0.085937l28.125 23.438c0.50781 0.41797 0.69141 1.1133 0.46875 1.7305-0.22266 0.62109-0.8125 1.0312-1.4688 1.0312h-6.25v32.812h1.5625v-18.75c0-0.86328 0.69922-1.5625 1.5625-1.5625h15.789l0.20313 0.015625c0.46484 0.058594 0.88281 0.32812 1.1328 0.73438l2.6094 4.2891c0.27344 0.22266 0.46875 0.53516 0.54297 0.89063l6.0586 9.9453c0.14844 0.24609 0.22656 0.52734 0.22656 0.8125v16.125c0 2.5898-2.0977 4.6875-4.6875 4.6875h-0.13281c-0.74219 4.4336-4.5977 7.8125-9.2422 7.8125s-8.5-3.3789-9.2422-7.8125h-20.578c-0.74219 4.4336-4.5977 7.8125-9.2422 7.8125-3.2617 0-6.1328-1.668-7.8125-4.1914-1.6797 2.5234-4.5508 4.1914-7.8125 4.1914-4.6445 0-8.5-3.3789-9.2422-7.8125h-3.2578c-1.7266 0-3.125-1.3984-3.125-3.125v-32.031l0.007812-0.16016c0.078126-0.78906 0.74609-1.4023 1.5547-1.4023h6.25c0.86328 0 1.5625 0.69922 1.5625 1.5625v17.969h1.5625v-32.812h-6.25c-0.65625 0-1.2461-0.41016-1.4688-1.0312-0.22266-0.61719-0.039062-1.3125 0.46875-1.7305l28.125-23.438zm-16.301 68.473c-3.4531 0-6.25 2.7969-6.25 6.25s2.7969 6.25 6.25 6.25 6.25-2.7969 6.25-6.25-2.7969-6.25-6.25-6.25zm15.625 0c-3.4531 0-6.25 2.7969-6.25 6.25s2.7969 6.25 6.25 6.25 6.25-2.7969 6.25-6.25-2.7969-6.25-6.25-6.25zm39.062 0c-3.4531 0-6.25 2.7969-6.25 6.25s2.7969 6.25 6.25 6.25 6.25-2.7969 6.25-6.25-2.7969-6.25-6.25-6.25zm-67.188 4.6875h3.2578c0.1875-1.1211 0.57422-2.1758 1.125-3.125h-4.3828zm36.242-3.125c0.55078 0.94922 0.9375 2.0039 1.125 3.125h15.758v-3.125zm20.008 3.125h1.6953c0.74219-4.4336 4.5977-7.8125 9.2422-7.8125s8.5 3.3789 9.2422 7.8125h0.13281c0.86328 0 1.5625-0.69922 1.5625-1.5625v-10.938h-6.25c-0.52344 0-1.0117-0.26172-1.3008-0.69531l-2.6758-4.0117-8.5586-0.20312c-0.84766-0.023438-1.5273-0.71484-1.5273-1.5625v-9.1523l0.007812-0.16016c0.078126-0.78906 0.74609-1.4023 1.5547-1.4023h11.176l-0.95312-1.5625h-13.348zm-56.25-6.25h7.3164c1.4844-0.98828 3.2656-1.5625 5.1836-1.5625 3.2617 0 6.1328 1.6641 7.8125 4.1914 1.6797-2.5273 4.5508-4.1914 7.8125-4.1914 1.918 0 3.6992 0.57422 5.1836 1.5625h19.816v-4.6875h-48.438c-0.86328 0-1.5625-0.69922-1.5625-1.5625v-17.969h-3.125zm10.938-7.8125h37.5v-32.812h-37.5zm50-6.4375 7.8477 0.1875c0.51172 0.011719 0.98047 0.27344 1.2656 0.69531l2.6602 3.9922h5.4141v-1.625l-5.6719-9.3125h-11.516zm-55.059-29.5h47.617l-23.809-19.84z" fill-rule="evenodd"/>
</svg>