<svg xmlns="http://www.w3.org/2000/svg" xmlns:xlink="http://www.w3.org/1999/xlink" version="1.1" x="0px" y="0px" viewBox="0 0 64 80" style="enable-background:new 0 0 64 64;" xml:space="preserve"><path d="M13,56c0-2.8-2.2-5-5-5s-5,2.2-5,5s2.2,5,5,5S13,58.8,13,56z M10,57c-0.5,0-1-0.5-1-1s-0.5-1-1-1s-1-0.5-1-1s0.5-1,1-1  c1.7,0,3,1.3,3,3C11,56.5,10.5,57,10,57z"/><path d="M39,56c0-2.8-2.2-5-5-5s-5,2.2-5,5s2.2,5,5,5S39,58.8,39,56z M36,57c-0.5,0-1-0.5-1-1s-0.5-1-1-1s-1-0.5-1-1s0.5-1,1-1  c1.7,0,3,1.3,3,3C37,56.5,36.5,57,36,57z"/><path d="M8,49c3.5,0,6.4,2.6,6.9,6h12.2c0.5-3.4,3.4-6,6.9-6c2,0,3.7,0.7,5,2h4v5c0,0.5,0.5,1,1,1h18c0.5,0,1-0.5,1-1s-0.5-1-1-1h-3  V41h-2v5c0,0.4-0.2,0.8-0.6,0.9c-0.1,0.1-0.7,0.2-1.1-0.2L54,45.4l-1.3,1.3c-0.3,0.3-0.7,0.4-1.1,0.2C51.2,46.8,51,46.4,51,46v-5h-2  v14h-4V2c0-0.5-0.5-1-1-1s-1,0.5-1,1v39h-2v-3.1c0-1.5-0.6-2.9-1.8-3.9L25.8,22.3c-0.9-0.8-2.1-1.3-3.4-1.3H5.7  C4.2,21,3,22.2,3,23.7v27.5C4.7,49.3,6.9,49,8,49z M41,43h2v6h-2V43z M10,45H9v1c0,0.5-0.5,1-1,1s-1-0.5-1-1v-2c0-0.5,0.5-1,1-1h2  c0.5,0,1,0.5,1,1S10.5,45,10,45z M24,53h-4c-0.5,0-1-0.5-1-1s0.5-1,1-1h4c0.5,0,1,0.5,1,1S24.5,53,24,53z M5,23.7  C5,23.3,5.3,23,5.7,23h16.8c0.8,0,1.5,0.3,2.1,0.8l13.4,11.7c0.7,0.6,1.1,1.5,1.1,2.4V45H24.5l-3.7-5.5C20.7,39.2,20.3,39,20,39H5  V23.7z"/><path d="M55,43.6V41h-2v2.6C53.7,42.8,54.3,42.8,55,43.6z"/><path d="M59,25h-2v5c0,0.4-0.2,0.8-0.6,0.9c-0.1,0.1-0.7,0.2-1.1-0.2L54,29.4l-1.3,1.3c-0.3,0.3-0.7,0.4-1.1,0.2  C51.2,30.8,51,30.4,51,30v-5h-2v14h10V25z"/><path d="M55,27.6V25h-2v2.6C53.7,26.7,54.3,26.7,55,27.6z"/><path d="M59,9h-2v5c0,0.4-0.2,0.8-0.6,0.9c-0.1,0.1-0.6,0.3-1.1-0.2L54,13.4l-1.3,1.3c-0.3,0.3-0.7,0.4-1.1,0.2  C51.2,14.8,51,14.4,51,14V9h-2v14h10V9z"/><path d="M55,11.6V9h-2v2.6C53.7,10.6,54.3,10.6,55,11.6z"/><path d="M16,61H2c-0.5,0-1,0.5-1,1s0.5,1,1,1h14c0.5,0,1-0.5,1-1S16.5,61,16,61z"/><path d="M46,61H20c-0.5,0-1,0.5-1,1s0.5,1,1,1h26c0.5,0,1-0.5,1-1S46.5,61,46,61z"/><path d="M62,61H50c-0.6,0-1,0.4-1,1s0.4,1,1,1h12c0.6,0,1-0.4,1-1S62.6,61,62,61z"/></svg>