<svg xmlns="http://www.w3.org/2000/svg" version="1.1" viewBox="-5.0 -10.0 110.0 135.0">
 <path d="m6.3047 39.148v46.75h-3.1797c-0.53906 0-0.97656 0.4375-0.97656 0.97656v6.3672c0 0.53906 0.4375 0.97656 0.97656 0.97656h93.75c0.53906 0 0.97656-0.4375 0.97656-0.97656v-6.3672c0-0.53906-0.4375-0.97656-0.97656-0.97656h-3.1797v-46.75c1.4297 0.15625 2.8867-0.52344 3.6562-1.8516 1.0312-1.7891 0.41797-4.0859-1.375-5.1211l-45.488-26.262c-0.30469-0.17578-0.67188-0.17578-0.97656 0l-45.488 26.262c-1.793 1.0352-2.4062 3.332-1.3711 5.1211 0.76562 1.3281 2.2227 2.0078 3.6523 1.8516zm0.97656 48.703h88.617v4.4141h-91.797v-4.4141zm0.97656-49.465v47.512h6.2617v-39.719c0-3.8086 3.0938-6.9023 6.9023-6.9023h57.156c3.8086 0 6.9023 3.0938 6.9023 6.9023v39.719h6.2617v-47.512l-41.742-24.098zm38.301 18.453h-30.086v29.059h10.855v-20.922c0-0.53906 0.4375-0.97656 0.97656-0.97656h43.391c0.53906 0 0.97656 0.4375 0.97656 0.97656v20.922h10.855v-29.059h-30.086v2.5117c0 0.54297-0.4375 0.97656-0.97656 0.97656h-4.9297c-0.53906 0-0.97656-0.43359-0.97656-0.97656zm-12.453 9.1133h-4.8242v19.742h19.742v-19.742h-4.8242v8.75c0 0.35156-0.19141 0.67969-0.5 0.85156-0.30859 0.17187-0.68359 0.16406-0.98828-0.015626l-3.5586-2.1875-3.5586 2.1875c-0.30469 0.17969-0.67969 0.1875-0.98828 0.015626-0.30859-0.17188-0.5-0.5-0.5-0.85156zm16.871 0v19.742h19.742v-19.742h-4.8242v8.75c0 0.35156-0.19141 0.67969-0.5 0.85156-0.30859 0.17187-0.68359 0.16406-0.98828-0.015626l-3.5586-2.1875-3.5586 2.1875c-0.30469 0.17969-0.67969 0.1875-0.98828 0.015626-0.30859-0.17188-0.5-0.5-0.5-0.85156v-8.75zm13.941 17.734h3.4492c0.53906 0 0.97656-0.4375 0.97656-0.97656 0-0.53906-0.4375-0.97656-0.97656-0.97656h-3.4492c-0.53906 0-0.97656 0.4375-0.97656 0.97656 0 0.53906 0.4375 0.97656 0.97656 0.97656zm-21.695 0h3.4453c0.54297 0 0.97656-0.4375 0.97656-0.97656 0-0.53906-0.43359-0.97656-0.97656-0.97656h-3.4453c-0.53906 0-0.97656 0.4375-0.97656 0.97656 0 0.53906 0.4375 0.97656 0.97656 0.97656zm23.418-2.9609h1.7266c0.53906 0 0.97656-0.4375 0.97656-0.97656s-0.4375-0.97656-0.97656-0.97656h-1.7266c-0.53906 0-0.97656 0.4375-0.97656 0.97656s0.4375 0.97656 0.97656 0.97656zm-21.695 0h1.7227c0.54297 0 0.97656-0.4375 0.97656-0.97656s-0.43359-0.97656-0.97656-0.97656h-1.7227c-0.53906 0-0.97656 0.4375-0.97656 0.97656s0.4375 0.97656 0.97656 0.97656zm12.809-14.773h6.1875v7.0078l-2.582-1.5859c-0.3125-0.19141-0.70703-0.19141-1.0234 0l-2.582 1.5859zm-21.695 0h6.1875v7.0078l-2.582-1.5859c-0.31641-0.19141-0.71094-0.19141-1.0234 0l-2.582 1.5859zm15.43-9.1133v1.5352h-2.9766v-1.5352zm-35.016-4.7227v2.7695h67.055v-2.7695zm0-4.9609v3.0078h67.055v-3.0078zm66.957-1.9531c-0.45313-2.2656-2.4531-3.9727-4.8516-3.9727h-57.156c-2.3984 0-4.3984 1.707-4.8516 3.9727zm9.7773-8.2266h-0.007812l-42.711-24.66c-0.30469-0.17578-0.67188-0.17578-0.97656 0l-42.711 24.66h-0.007812c-0.85547 0.49609-1.957 0.20313-2.4492-0.65625-0.49609-0.85937-0.20312-1.957 0.65625-2.4531l45-25.98 45 25.98c0.85938 0.49609 1.1523 1.5938 0.65625 2.4531-0.49219 0.85938-1.5938 1.1523-2.4492 0.65625zm-43.207-10.805c-2.6953 0-4.8828 2.1875-4.8828 4.8828 0 2.6953 2.1875 4.8828 4.8828 4.8828s4.8828-2.1875 4.8828-4.8828c0-2.6953-2.1875-4.8828-4.8828-4.8828zm-11.875 0c-2.6953 0-4.8828 2.1875-4.8828 4.8828 0 2.6953 2.1875 4.8828 4.8828 4.8828 2.6992 0 4.8828-2.1875 4.8828-4.8828 0-2.6953-2.1836-4.8828-4.8828-4.8828zm23.75 0c-2.6992 0-4.8828 2.1875-4.8828 4.8828 0 2.6953 2.1836 4.8828 4.8828 4.8828 2.6953 0 4.8828-2.1875 4.8828-4.8828 0-2.6953-2.1875-4.8828-4.8828-4.8828zm-11.875 1.9531c1.6172 0 2.9297 1.3125 2.9297 2.9297 0 1.6172-1.3125 2.9297-2.9297 2.9297s-2.9297-1.3125-2.9297-2.9297c0-1.6172 1.3125-2.9297 2.9297-2.9297zm-11.875 0c1.6172 0 2.9297 1.3125 2.9297 2.9297 0 1.6172-1.3125 2.9297-2.9297 2.9297s-2.9297-1.3125-2.9297-2.9297c0-1.6172 1.3125-2.9297 2.9297-2.9297zm23.75 0c1.6172 0 2.9297 1.3125 2.9297 2.9297 0 1.6172-1.3125 2.9297-2.9297 2.9297s-2.9297-1.3125-2.9297-2.9297c0-1.6172 1.3125-2.9297 2.9297-2.9297z" fill-rule="evenodd"/>
</svg>