<svg xmlns="http://www.w3.org/2000/svg" xmlns:xlink="http://www.w3.org/1999/xlink" version="1.1" x="0px" y="0px" viewBox="0 0 90 112.5" enable-background="new 0 0 90 90" xml:space="preserve"><g><path fill="#000000" d="M79.55,64.05c-0.895,0-1.684-0.314-2.343-0.936c-0.522-0.561-0.834-1.168-0.949-1.827L76.25,60.75   c0-0.939,0.322-1.718,0.957-2.314c0.651-0.65,1.443-0.985,2.343-0.985c0.908,0,1.687,0.339,2.314,1.007   c0.673,0.557,1.036,1.342,1.036,2.293c0,0.203-0.022,0.396-0.065,0.57c-0.11,0.633-0.442,1.244-0.981,1.783   C81.226,63.731,80.45,64.05,79.55,64.05z M79.55,58.45c-0.634,0-1.173,0.23-1.646,0.703c-0.443,0.417-0.653,0.936-0.653,1.597v0.45   c0.075,0.387,0.296,0.811,0.666,1.21c0.451,0.423,0.993,0.64,1.634,0.64c0.635,0,1.157-0.214,1.597-0.653   c0.396-0.396,0.629-0.815,0.711-1.283c0.031-0.13,0.043-0.241,0.043-0.363c0-0.649-0.235-1.162-0.721-1.566   C80.698,58.677,80.18,58.45,79.55,58.45z M42.15,64.05c-0.895,0-1.683-0.314-2.343-0.936c-0.453-0.524-0.734-1.074-0.867-1.664   c-0.046,0.228-0.248,0.399-0.49,0.399h-2.6c-0.052,0-0.103-0.008-0.15-0.022c-0.048,0.015-0.098,0.022-0.15,0.022H33.4   c-0.276,0-0.5-0.224-0.5-0.5s0.224-0.5,0.5-0.5h2.15c0.052,0,0.103,0.008,0.15,0.022c0.047-0.015,0.098-0.022,0.15-0.022h2.6   c0.176,0,0.33,0.091,0.419,0.228c-0.013-0.101-0.02-0.212-0.02-0.327c0-0.937,0.32-1.714,0.952-2.31   c0.661-0.657,1.451-0.99,2.348-0.99c0.941,0,1.737,0.339,2.365,1.008c0.643,0.563,0.985,1.346,0.985,2.292   c0,0.203-0.021,0.395-0.064,0.569c-0.11,0.628-0.422,1.234-0.919,1.771C43.876,63.731,43.084,64.05,42.15,64.05z M42.15,58.45   c-0.633,0-1.172,0.23-1.647,0.704c-0.003,0.003-0.007,0.007-0.011,0.01c-0.432,0.406-0.642,0.925-0.642,1.586   c0,0.124,0.012,0.235,0.036,0.331c0.091,0.513,0.3,0.942,0.644,1.344c0.438,0.408,0.98,0.625,1.62,0.625   c0.668,0,1.207-0.214,1.646-0.653c0.352-0.38,0.579-0.816,0.662-1.283c0.03-0.128,0.042-0.239,0.042-0.363   c0-0.656-0.223-1.171-0.681-1.575C43.348,58.677,42.813,58.45,42.15,58.45z M8.9,64.05c-0.901,0-1.676-0.318-2.303-0.946   c-0.469-0.504-0.77-1.056-0.906-1.654c-0.046,0.229-0.248,0.4-0.49,0.4H2.65c-0.276,0-0.5-0.224-0.5-0.5V53.2   c0-0.276,0.224-0.5,0.5-0.5h32.9c0.052,0,0.103,0.008,0.15,0.022c0.047-0.015,0.098-0.022,0.15-0.022H68.8   c0.276,0,0.5,0.224,0.5,0.5v8.149c0,0.276-0.224,0.5-0.5,0.5H66.65c-0.276,0-0.5-0.224-0.5-0.5s0.224-0.5,0.5-0.5H68.3V53.7H35.85   c-0.052,0-0.103-0.008-0.15-0.022c-0.048,0.015-0.098,0.022-0.15,0.022H3.15v7.149H5.2c0.176,0,0.33,0.091,0.419,0.228   C5.607,60.977,5.6,60.865,5.6,60.75c0-0.947,0.343-1.729,1.02-2.325c0.596-0.636,1.375-0.975,2.28-0.975   c0.941,0,1.737,0.339,2.365,1.008c0.643,0.563,0.985,1.346,0.985,2.292c0,0.197-0.02,0.383-0.06,0.553   c-0.119,0.654-0.43,1.255-0.923,1.787C10.626,63.731,9.834,64.05,8.9,64.05z M8.9,58.45c-0.628,0-1.147,0.227-1.586,0.692   C6.823,59.578,6.6,60.094,6.6,60.75c0,0.124,0.012,0.235,0.036,0.331c0.09,0.507,0.311,0.931,0.681,1.328   C7.743,62.836,8.265,63.05,8.9,63.05c0.668,0,1.207-0.214,1.646-0.653c0.352-0.38,0.579-0.816,0.662-1.283   c0.002-0.011,0.004-0.021,0.006-0.032c0.024-0.096,0.036-0.207,0.036-0.331c0-0.656-0.223-1.171-0.681-1.575   C10.098,58.677,9.563,58.45,8.9,58.45z M62.7,64.049c-0.896,0-1.685-0.314-2.343-0.936c-0.521-0.559-0.833-1.166-0.949-1.827   L59.4,60.749c0-0.94,0.322-1.719,0.958-2.314c0.647-0.65,1.439-0.985,2.342-0.985c0.905,0,1.684,0.339,2.313,1.007   C65.657,59.022,66,59.805,66,60.75v0.45c0,0.079-0.019,0.156-0.054,0.227c-0.125,0.654-0.445,1.218-0.957,1.689   C64.375,63.73,63.6,64.049,62.7,64.049z M62.7,58.449c-0.636,0-1.174,0.229-1.646,0.703c-0.443,0.416-0.653,0.935-0.653,1.597v0.45   c0.076,0.389,0.296,0.813,0.666,1.209c0.45,0.424,0.992,0.641,1.634,0.641c0.634,0,1.156-0.214,1.597-0.653   c0.369-0.342,0.581-0.709,0.662-1.139c-0.006-0.017,0.008-0.079,0.041-0.163V60.75c0-0.655-0.223-1.172-0.681-1.576   C63.847,58.676,63.328,58.449,62.7,58.449z M29.45,64.049c-0.901,0-1.676-0.318-2.304-0.946c-0.545-0.546-0.863-1.166-0.943-1.845   c-0.032-0.109-0.054-0.297-0.054-0.509c0-0.946,0.343-1.729,1.02-2.325c0.596-0.636,1.374-0.975,2.281-0.975   c0.938,0,1.734,0.339,2.364,1.007c0.614,0.576,0.936,1.354,0.936,2.294v0.45c0,0.079-0.019,0.156-0.054,0.227   c-0.123,0.647-0.422,1.206-0.892,1.676C31.175,63.73,30.383,64.049,29.45,64.049z M29.45,58.449c-0.629,0-1.147,0.227-1.586,0.692   c-0.492,0.437-0.714,0.951-0.714,1.607c0,0.128,0.011,0.234,0.035,0.327c0.065,0.521,0.28,0.932,0.668,1.319   c0.439,0.439,0.962,0.653,1.597,0.653c0.667,0,1.206-0.214,1.647-0.653c0.33-0.33,0.53-0.702,0.612-1.138   c-0.006-0.018,0.008-0.08,0.041-0.164V60.75c0-0.661-0.21-1.181-0.643-1.587C30.647,58.676,30.112,58.449,29.45,58.449z    M86.45,61.85H84.35c-0.276,0-0.5-0.224-0.5-0.5s0.224-0.5,0.5-0.5h1.717c1.108-4.254,0.939-7.31-0.504-9.084L79.318,44.4H70.8   v16.45h4.75c0.276,0,0.5,0.224,0.5,0.5s-0.224,0.5-0.5,0.5H70.3c-0.276,0-0.5-0.224-0.5-0.5V43.9c0-0.276,0.224-0.5,0.5-0.5h9.25   c0.146,0,0.286,0.064,0.382,0.177l6.4,7.55c1.706,2.098,1.906,5.579,0.601,10.354C86.873,61.699,86.676,61.85,86.45,61.85z    M58.35,61.85h-12c-0.276,0-0.5-0.224-0.5-0.5s0.224-0.5,0.5-0.5h12c0.276,0,0.5,0.224,0.5,0.5S58.626,61.85,58.35,61.85z    M25.1,61.85H13.15c-0.276,0-0.5-0.224-0.5-0.5s0.224-0.5,0.5-0.5H25.1c0.276,0,0.5,0.224,0.5,0.5S25.376,61.85,25.1,61.85z    M83.4,52.15H76.35c-0.276,0-0.5-0.224-0.5-0.5V45.4c0-0.276,0.224-0.5,0.5-0.5h2c0.151,0,0.294,0.068,0.389,0.186l5.051,6.25   c0.121,0.15,0.146,0.356,0.063,0.53S83.593,52.15,83.4,52.15z M76.85,51.15h5.504L78.11,45.9H76.85V51.15z M74.75,52.15h-3.2   c-0.276,0-0.5-0.224-0.5-0.5V45.4c0-0.276,0.224-0.5,0.5-0.5h3.2c0.276,0,0.5,0.224,0.5,0.5v6.25   C75.25,51.927,75.026,52.15,74.75,52.15z M72.05,51.15h2.2V45.9h-2.2V51.15z M66.601,51.85c-0.012,0-0.023,0-0.035-0.001   c-0.275-0.02-0.483-0.258-0.465-0.533c0.05-0.714-0.022-1.312-0.213-1.775c-0.025-0.061-0.038-0.125-0.038-0.19v-0.078   c-0.134-0.25-0.294-0.482-0.477-0.692c0,0-0.001,0-0.001-0.001c-0.037-0.021-0.072-0.046-0.101-0.074   c-0.032-0.032-0.063-0.067-0.088-0.106c-0.453-0.393-1.082-0.663-1.872-0.806l-5.099-0.899c-0.091-0.016-0.176-0.057-0.245-0.118   L54.11,43.15h-3.46v3.45c0,0.276-0.224,0.5-0.5,0.5H38.8v4.25c0,0.276-0.224,0.5-0.5,0.5s-0.5-0.224-0.5-0.5V46.6   c0-0.276,0.224-0.5,0.5-0.5H49.65v-3.45c0-0.276,0.224-0.5,0.5-0.5H54.3c0.122,0,0.24,0.045,0.332,0.126l3.895,3.457l4.961,0.875   c1.018,0.183,1.836,0.556,2.435,1.109c0.06,0.028,0.118,0.069,0.177,0.126c0.056,0.054,0.098,0.12,0.123,0.191   c0.223,0.273,0.416,0.573,0.575,0.894c0.035,0.069,0.053,0.146,0.053,0.223v0.104c0.222,0.59,0.306,1.306,0.249,2.129   C67.08,51.647,66.86,51.85,66.601,51.85z M33.351,51.85c-0.009,0-0.019,0-0.028-0.001c-0.276-0.015-0.487-0.251-0.471-0.526   c0.124-2.226-0.759-3.41-2.779-3.729l-5.109-0.901c-0.091-0.016-0.176-0.057-0.245-0.118L20.86,43.15H9.718L5.5,47.696v3.653   c0,0.276-0.224,0.5-0.5,0.5s-0.5-0.224-0.5-0.5V47.5c0-0.126,0.048-0.248,0.133-0.34l4.5-4.85c0.095-0.102,0.228-0.16,0.367-0.16   h11.55c0.123,0,0.24,0.045,0.332,0.126l3.894,3.457l4.961,0.875c2.512,0.396,3.764,2.046,3.612,4.77   C33.834,51.644,33.614,51.85,33.351,51.85z M57.35,51.8c-0.123,0-0.247-0.045-0.344-0.137c-0.2-0.189-0.209-0.506-0.02-0.707   c0.631-0.667,1.409-1.006,2.313-1.006c0.942,0,1.737,0.339,2.364,1.008c0.189,0.201,0.18,0.518-0.022,0.706   c-0.199,0.188-0.518,0.181-0.706-0.022c-0.437-0.465-0.972-0.691-1.636-0.691c-0.627,0-1.146,0.227-1.587,0.693   C57.614,51.747,57.482,51.8,57.35,51.8z M42.6,51.8c-0.123,0-0.246-0.045-0.343-0.136c-0.201-0.189-0.21-0.506-0.021-0.707   c0.629-0.668,1.408-1.007,2.313-1.007c0.942,0,1.737,0.339,2.364,1.008c0.189,0.201,0.18,0.518-0.022,0.706   c-0.198,0.188-0.518,0.181-0.706-0.022c-0.437-0.465-0.972-0.691-1.636-0.691c-0.628,0-1.147,0.227-1.586,0.692   C42.866,51.747,42.733,51.8,42.6,51.8z M24.1,51.8c-0.123,0-0.246-0.045-0.343-0.136c-0.201-0.189-0.21-0.506-0.021-0.707   c0.629-0.668,1.408-1.007,2.313-1.007c0.941,0,1.737,0.339,2.365,1.008c0.189,0.201,0.179,0.518-0.022,0.706   c-0.201,0.19-0.518,0.18-0.707-0.022c-0.437-0.465-0.972-0.691-1.635-0.691c-0.628,0-1.147,0.227-1.586,0.692   C24.366,51.747,24.233,51.8,24.1,51.8z M9.35,51.8c-0.123,0-0.246-0.045-0.343-0.136c-0.201-0.189-0.21-0.506-0.021-0.707   c0.629-0.668,1.408-1.007,2.313-1.007c0.902,0,1.694,0.335,2.354,0.996c0.195,0.196,0.195,0.513-0.001,0.708   c-0.195,0.193-0.512,0.194-0.707-0.001c-0.472-0.474-1.01-0.703-1.646-0.703c-0.628,0-1.147,0.227-1.586,0.692   C9.616,51.747,9.483,51.8,9.35,51.8z M68.8,41.15H2.65c-0.276,0-0.5-0.224-0.5-0.5V38.2c0-0.276,0.224-0.5,0.5-0.5h32.9   c0.052,0,0.103,0.008,0.15,0.023c0.047-0.015,0.098-0.023,0.15-0.023H68.8c0.276,0,0.5,0.224,0.5,0.5v2.45   C69.3,40.926,69.076,41.15,68.8,41.15z M3.15,40.15H68.3V38.7H35.85c-0.052,0-0.103-0.008-0.15-0.023   c-0.048,0.015-0.098,0.023-0.15,0.023H3.15V40.15z M66.374,36.4c-0.246,0-0.461-0.183-0.495-0.434   c-0.039-0.294-0.095-0.574-0.163-0.842c-0.799-2.961-3.211-4.182-7.361-3.727c-0.14,0.015-0.283-0.03-0.39-0.125L54.108,27.8   H42.935l-1.96,1.68c-1.663,1.641-2.496,3.502-2.45,5.509c0.012,0.272,0.036,0.561,0.071,0.85c0.034,0.274-0.161,0.524-0.435,0.557   c-0.282,0.04-0.524-0.162-0.557-0.435c-0.039-0.316-0.065-0.63-0.079-0.938c-0.052-2.305,0.881-4.413,2.773-6.278l2.126-1.824   c0.09-0.078,0.206-0.121,0.325-0.121H54.3c0.123,0,0.243,0.046,0.335,0.128l3.835,3.452c4.529-0.437,7.292,1.072,8.213,4.49   c0.08,0.311,0.144,0.629,0.188,0.964c0.036,0.273-0.156,0.525-0.43,0.562C66.419,36.398,66.396,36.4,66.374,36.4z M33.299,36.4   c-0.251,0-0.467-0.188-0.496-0.443c-0.031-0.268-0.094-0.521-0.193-0.773c-0.188-0.511-0.522-0.983-0.996-1.413   c-1.247-1.091-3.483-1.893-6.64-2.376c-0.096-0.015-0.187-0.057-0.259-0.123L20.858,27.8H9.777l-2.003,3.215   c-0.061,0.097-0.153,0.17-0.261,0.208L3.8,32.506V35.9c0,0.276-0.224,0.5-0.5,0.5s-0.5-0.224-0.5-0.5v-3.75   c0-0.213,0.135-0.403,0.336-0.473l3.883-1.342l2.056-3.3C9.167,26.889,9.327,26.8,9.5,26.8h11.55c0.124,0,0.243,0.046,0.334,0.128   l3.889,3.5c3.315,0.521,5.608,1.371,7.006,2.595c0.601,0.545,1.024,1.15,1.265,1.803c0.126,0.32,0.212,0.665,0.252,1.016   c0.032,0.274-0.166,0.522-0.44,0.553C33.337,36.399,33.318,36.4,33.299,36.4z M13.25,36.4c-0.119,0-0.238-0.042-0.334-0.128   c-0.466-0.418-0.995-0.622-1.616-0.622c-0.615,0-1.124,0.2-1.555,0.612c-0.199,0.19-0.517,0.184-0.707-0.017   c-0.19-0.2-0.183-0.516,0.017-0.707c0.618-0.589,1.373-0.888,2.245-0.888c0.867,0,1.635,0.295,2.284,0.878   c0.206,0.185,0.223,0.5,0.038,0.706C13.523,36.344,13.387,36.4,13.25,36.4z M46.5,36.4c-0.124,0-0.248-0.046-0.345-0.138   c-0.433-0.412-0.958-0.612-1.605-0.612c-0.615,0-1.124,0.2-1.555,0.612c-0.2,0.19-0.517,0.184-0.707-0.017   c-0.19-0.2-0.183-0.516,0.017-0.707c0.618-0.589,1.373-0.888,2.245-0.888c0.904,0,1.676,0.299,2.295,0.888   c0.2,0.19,0.208,0.507,0.018,0.707C46.764,36.348,46.632,36.4,46.5,36.4z M57.4,36.4c-0.132,0-0.264-0.052-0.361-0.155   c-0.191-0.2-0.184-0.516,0.016-0.707c0.617-0.59,1.372-0.889,2.244-0.889c0.905,0,1.677,0.299,2.295,0.888   c0.2,0.19,0.208,0.507,0.018,0.707c-0.191,0.2-0.508,0.208-0.707,0.017c-0.433-0.412-0.957-0.612-1.605-0.612   c-0.614,0-1.122,0.2-1.553,0.611C57.648,36.354,57.524,36.4,57.4,36.4z M24.15,36.4c-0.132,0-0.264-0.052-0.362-0.155   c-0.19-0.2-0.183-0.516,0.017-0.707c0.618-0.589,1.373-0.888,2.245-0.888c0.904,0,1.676,0.299,2.295,0.888   c0.2,0.19,0.208,0.507,0.017,0.707c-0.19,0.202-0.506,0.208-0.707,0.017c-0.433-0.412-0.958-0.612-1.605-0.612   c-0.615,0-1.124,0.2-1.555,0.612C24.398,36.354,24.274,36.4,24.15,36.4z M68.8,25.75H2.65c-0.276,0-0.5-0.224-0.5-0.5v-2.4   c0-0.276,0.224-0.5,0.5-0.5h32.9c0.052,0,0.103,0.008,0.15,0.023c0.047-0.015,0.098-0.023,0.15-0.023H68.8   c0.276,0,0.5,0.224,0.5,0.5v2.4C69.3,25.526,69.076,25.75,68.8,25.75z M3.15,24.75H68.3v-1.4H35.85   c-0.052,0-0.103-0.008-0.15-0.023c-0.048,0.015-0.098,0.023-0.15,0.023H3.15V24.75z"/></g></svg>