<svg xmlns="http://www.w3.org/2000/svg" data-name="Layer 1" viewBox="0 0 1000 1250" x="0px" y="0px"><path d="M661.54,895.75H338.46a16,16,0,0,1-16-16V338a16,16,0,0,1,16-16H661.54a16,16,0,0,1,16,16V879.75A16,16,0,0,1,661.54,895.75Zm-307.08-32H645.54V354H354.46Z"/><path d="M455.49,424.43H402.75a16,16,0,0,1,0-32h52.74a16,16,0,0,1,0,32Z"/><path d="M455.49,492.45H402.75a16,16,0,0,1,0-32h52.74a16,16,0,0,1,0,32Z"/><path d="M455.49,560.47H402.75a16,16,0,0,1,0-32h52.74a16,16,0,0,1,0,32Z"/><path d="M455.49,628.49H402.75a16,16,0,0,1,0-32h52.74a16,16,0,0,1,0,32Z"/><path d="M455.49,696.52H402.75a16,16,0,0,1,0-32h52.74a16,16,0,0,1,0,32Z"/><path d="M260.06,508.88H207.31a16,16,0,0,1,0-32h52.75a16,16,0,1,1,0,32Z"/><path d="M260.06,576.9H207.31a16,16,0,0,1,0-32h52.75a16,16,0,1,1,0,32Z"/><path d="M260.06,644.92H207.31a16,16,0,0,1,0-32h52.75a16,16,0,1,1,0,32Z"/><path d="M260.06,712.94H207.31a16,16,0,1,1,0-32h52.75a16,16,0,0,1,0,32Z"/><path d="M260.06,781H207.31a16,16,0,1,1,0-32h52.75a16,16,0,0,1,0,32Z"/><path d="M792.69,508.88H739.94a16,16,0,0,1,0-32h52.75a16,16,0,0,1,0,32Z"/><path d="M792.69,576.9H739.94a16,16,0,0,1,0-32h52.75a16,16,0,0,1,0,32Z"/><path d="M792.69,644.92H739.94a16,16,0,0,1,0-32h52.75a16,16,0,0,1,0,32Z"/><path d="M792.69,712.94H739.94a16,16,0,0,1,0-32h52.75a16,16,0,0,1,0,32Z"/><path d="M792.69,781H739.94a16,16,0,0,1,0-32h52.75a16,16,0,0,1,0,32Z"/><path d="M597.25,424.43H544.51a16,16,0,0,1,0-32h52.74a16,16,0,0,1,0,32Z"/><path d="M597.25,492.45H544.51a16,16,0,0,1,0-32h52.74a16,16,0,0,1,0,32Z"/><path d="M597.25,560.47H544.51a16,16,0,0,1,0-32h52.74a16,16,0,0,1,0,32Z"/><path d="M597.25,628.49H544.51a16,16,0,0,1,0-32h52.74a16,16,0,0,1,0,32Z"/><path d="M597.25,696.52H544.51a16,16,0,0,1,0-32h52.74a16,16,0,0,1,0,32Z"/><path d="M551.37,895.75H448.63a16,16,0,0,1-16-16V747.88a16,16,0,0,1,16-16H551.37a16,16,0,0,1,16,16V879.75A16,16,0,0,1,551.37,895.75Zm-86.74-32h70.74V763.88H464.63Z"/><path d="M338.46,895.32H128.91a16,16,0,0,1-16-16V431.43a16,16,0,0,1,16-16H338.46a16,16,0,0,1,16,16V879.32A16,16,0,0,1,338.46,895.32Zm-193.55-32H322.46V447.43H144.91Z"/><path d="M871.09,895.32H661.54a16,16,0,0,1-16-16V431.43a16,16,0,0,1,16-16H871.09a16,16,0,0,1,16,16V879.32A16,16,0,0,1,871.09,895.32Zm-193.55-32H855.09V447.43H677.54Z"/><path d="M576.61,354H423.39a16,16,0,0,1-16-16V226.66a16,16,0,0,1,16-16H576.61a16,16,0,0,1,16,16V338A16,16,0,0,1,576.61,354ZM439.39,322H560.61V242.66H439.39Z"/><path d="M500,242.66a16,16,0,0,1-16-16V120.25a16,16,0,0,1,32,0V226.66A16,16,0,0,1,500,242.66Z"/><path d="M661.54,895.75H338.46a16,16,0,0,1-16-16V338a16,16,0,0,1,16-16H661.54a16,16,0,0,1,16,16V879.75A16,16,0,0,1,661.54,895.75Zm-307.08-32H645.54V354H354.46Z"/><path d="M455.49,424.43H402.75a16,16,0,0,1,0-32h52.74a16,16,0,0,1,0,32Z"/><path d="M455.49,492.45H402.75a16,16,0,0,1,0-32h52.74a16,16,0,0,1,0,32Z"/><path d="M455.49,560.47H402.75a16,16,0,0,1,0-32h52.74a16,16,0,0,1,0,32Z"/><path d="M455.49,628.49H402.75a16,16,0,0,1,0-32h52.74a16,16,0,0,1,0,32Z"/><path d="M455.49,696.52H402.75a16,16,0,0,1,0-32h52.74a16,16,0,0,1,0,32Z"/><path d="M260.06,508.88H207.31a16,16,0,0,1,0-32h52.75a16,16,0,1,1,0,32Z"/><path d="M260.06,576.9H207.31a16,16,0,0,1,0-32h52.75a16,16,0,1,1,0,32Z"/><path d="M260.06,644.92H207.31a16,16,0,0,1,0-32h52.75a16,16,0,1,1,0,32Z"/><path d="M260.06,712.94H207.31a16,16,0,1,1,0-32h52.75a16,16,0,0,1,0,32Z"/><path d="M260.06,781H207.31a16,16,0,1,1,0-32h52.75a16,16,0,0,1,0,32Z"/><path d="M792.69,508.88H739.94a16,16,0,0,1,0-32h52.75a16,16,0,0,1,0,32Z"/><path d="M792.69,576.9H739.94a16,16,0,0,1,0-32h52.75a16,16,0,0,1,0,32Z"/><path d="M792.69,644.92H739.94a16,16,0,0,1,0-32h52.75a16,16,0,0,1,0,32Z"/><path d="M792.69,712.94H739.94a16,16,0,0,1,0-32h52.75a16,16,0,0,1,0,32Z"/><path d="M792.69,781H739.94a16,16,0,0,1,0-32h52.75a16,16,0,0,1,0,32Z"/><path d="M597.25,424.43H544.51a16,16,0,0,1,0-32h52.74a16,16,0,0,1,0,32Z"/><path d="M597.25,492.45H544.51a16,16,0,0,1,0-32h52.74a16,16,0,0,1,0,32Z"/><path d="M597.25,560.47H544.51a16,16,0,0,1,0-32h52.74a16,16,0,0,1,0,32Z"/><path d="M597.25,628.49H544.51a16,16,0,0,1,0-32h52.74a16,16,0,0,1,0,32Z"/><path d="M597.25,696.52H544.51a16,16,0,0,1,0-32h52.74a16,16,0,0,1,0,32Z"/><path d="M551.37,895.75H448.63a16,16,0,0,1-16-16V747.88a16,16,0,0,1,16-16H551.37a16,16,0,0,1,16,16V879.75A16,16,0,0,1,551.37,895.75Zm-86.74-32h70.74V763.88H464.63Z"/><path d="M338.46,895.32H128.91a16,16,0,0,1-16-16V431.43a16,16,0,0,1,16-16H338.46a16,16,0,0,1,16,16V879.32A16,16,0,0,1,338.46,895.32Zm-193.55-32H322.46V447.43H144.91Z"/><path d="M871.09,895.32H661.54a16,16,0,0,1-16-16V431.43a16,16,0,0,1,16-16H871.09a16,16,0,0,1,16,16V879.32A16,16,0,0,1,871.09,895.32Zm-193.55-32H855.09V447.43H677.54Z"/><path d="M576.61,354H423.39a16,16,0,0,1-16-16V226.66a16,16,0,0,1,16-16H576.61a16,16,0,0,1,16,16V338A16,16,0,0,1,576.61,354ZM439.39,322H560.61V242.66H439.39Z"/><path d="M500,242.66a16,16,0,0,1-16-16V120.25a16,16,0,0,1,32,0V226.66A16,16,0,0,1,500,242.66Z"/></svg>