<svg xmlns="http://www.w3.org/2000/svg" xmlns:xlink="http://www.w3.org/1999/xlink" version="1.1" x="0px" y="0px" viewBox="0 0 100 125" enable-background="new 0 0 100 100" xml:space="preserve"><g><path d="M83.913,36.785L58.8,36.774c-7.931,0-15.176,6.467-15.176,14.537V67.77H24.983c-6.453,0-6.453,9.523,0,9.523h23.032   l0.69-0.026c2.218,0.016,4.444-1.656,4.444-5.01V52.23h3.503l-0.007,34.437H86.6l0.012-34.437h3.45v29.546   c0,6.737,9.47,6.737,9.451,0v-30.26C99.513,44.077,92.621,36.785,83.913,36.785z"/><path d="M0.53,26.568V65.26h39.78V26.568H0.53z M36.414,61.362H4.427V30.465h12.838v13.312h5.756V30.465h13.392V61.362z"/></g><g><g><path d="M81.882,21.195v-0.022h0.008l0.015-3.292c-0.255-5.694-4.912-10.247-10.672-10.247c-5.722,0-10.353,4.502-10.656,10.151    H51.87v3.388L81.882,21.195z"/><path d="M60.535,23.972c0.123,5.801,4.837,10.469,10.668,10.469c5.781,0,10.466-4.603,10.652-10.346h0.004v-0.022    c0-0.036,0.004-0.067,0.008-0.101H60.535z"/></g></g></svg>